<svg xmlns="http://www.w3.org/2000/svg" xmlns:xlink="http://www.w3.org/1999/xlink" id="Layer_1" x="0" y="0" enable-background="new 0 0 96.2 96" version="1.1" viewBox="0 0 96.2 96" xml:space="preserve"><title>timeout</title><g id="Layer_2"><g id="Layer_1-2"><linearGradient id="SVGID_1_" x1="86.971" x2="8.671" y1="757.359" y2="678.279" gradientTransform="matrix(1 0 0 1 0 -670)" gradientUnits="userSpaceOnUse"><stop offset="0" style="stop-color:#00bfe7"/><stop offset=".71" style="stop-color:#99d7f4"/></linearGradient><path fill="url(#SVGID_1_)" d="M8,0h80c4.4,0,8,3.6,8,8v80c0,4.4-3.6,8-8,8H8c-4.4,0-8-3.6-8-8V8C0,3.6,3.6,0,8,0z"/><linearGradient id="SVGID_2_" x1="91.165" x2="62.515" y1="765.963" y2="735.083" gradientTransform="matrix(1 0 0 1 0 -670)" gradientUnits="userSpaceOnUse"><stop offset="0" style="stop-color:#0071bb;stop-opacity:0"/><stop offset="1" style="stop-color:#0071bb;stop-opacity:.5"/></linearGradient><path fill="url(#SVGID_2_)" d="M25.8,74.6L48,96h40c4.4,0,8-3.6,8-8l0.2-35.7L74.6,30.8L25.8,74.6z"/><circle cx="87" cy="87" r="3" fill="#112E51"/><circle cx="9" cy="87" r="3" fill="#112E51"/><circle cx="87" cy="9" r="3" fill="#112E51"/><circle cx="9" cy="9" r="3" fill="#112E51"/><path fill="#0071BB" stroke="#112E51" stroke-linejoin="round" stroke-width="2.5" d="M51.6,26.1v-4.5h5v-8.2 c0-0.9-0.7-1.6-1.6-1.6l0,0H41.6c-0.9,0-2.3,0.7-2.3,1.6v8.2h4.8v4.5"/><path fill="#112E51" d="M71,36l3.9-4c0.1-0.1,0.2-0.3,0.2-0.5c0-0.1,0-0.3-0.1-0.4l-4.6-4.7c-0.1-0.1-0.2-0.1-0.4-0.1 c-0.2,0-0.3,0.1-0.4,0.2l-3.9,4C67.3,32.5,69.1,34.3,71,36z"/><ellipse cx="48" cy="54.3" fill="#FFF" stroke="#112E51" stroke-linecap="round" stroke-linejoin="round" stroke-width="3" rx="28.3" ry="28.6"/><ellipse cx="48" cy="54.3" fill="#FFF" rx="22.9" ry="23.2"/><ellipse cx="48" cy="54.3" fill="none" stroke="#112E51" stroke-dasharray="1.01 3.02" stroke-miterlimit="10" stroke-width="1.5" rx="22.9" ry="23.2"/><ellipse cx="48" cy="54.3" fill="#D1F0FF" rx="15.5" ry="15.7"/><line x1="61.8" x2="46.5" y1="39.9" y2="55.6" fill="none" stroke="#112E51" stroke-linecap="round" stroke-linejoin="round" stroke-width="2"/></g></g></svg>