<svg xmlns="http://www.w3.org/2000/svg" xmlns:xlink="http://www.w3.org/1999/xlink" width="64" height="78" version="1.1" viewBox="0 0 64 78"><title>Safe Lock</title><desc>Important: Keep it safe</desc><g id="Personal-Key---WIP" fill="none" fill-rule="evenodd" stroke="none" stroke-width="1"><g id="lock-exclamation-red" transform="translate(-43.000000, -36.000000)"><g id="Group" transform="translate(44.000000, 37.000000)"><path id="Combined-Shape" fill="#EBF3FA" d="M62,60 L62,66 C62,71.5228475 57.5228475,76 52,76 L10,76 C4.4771525,76 -2.87635993e-15,71.5228475 0,66 L0,60 L62,60 Z"/><path id="Combined-Shape" fill="#FFF" d="M57,32 C59.7614237,32 62,34.2385763 62,37 L62,60 L0,60 L0,37 C-3.38176876e-16,34.2385763 2.23857625,32 5,32 L57,32 Z"/><circle id="Oval" cx="31" cy="54" r="12" fill="#FFF"/><g id="icon-/-alerts-/-error" fill-rule="nonzero"><g transform="translate(19.000000, 42.000000)"><path id="Path" fill="#E21C3D" d="M12,24 C18.62745,24 24,18.627 24,12 C24,5.373 18.62745,0 12,0 C5.37255,0 0,5.373 0,12 C0,18.627 5.37255,24 12,24 Z"/><rect id="Rectangle" width="4.5" height="4.5" x="9.75" y="15.72" fill="#FFF" rx="2"/><rect id="Rectangle" width="4.5" height="10.136" x="9.75" y="3.75" fill="#FFF" rx="2"/></g></g><path id="Rectangle" stroke="#A8B6C6" stroke-width="2" d="M5,32 L57,32 C59.7614237,32 62,34.2385763 62,37 L62,66 C62,71.5228475 57.5228475,76 52,76 L10,76 C4.4771525,76 -6.42907361e-15,71.5228475 -3.55271368e-15,66 L-3.55271368e-15,37 C-3.89089055e-15,34.2385763 2.23857625,32 5,32 Z"/><path id="Combined-Shape" fill="#FFF" stroke="#A8B6C6" stroke-width="2" d="M30.5974026,-5.5067062e-14 C40.8254293,-5.694592e-14 49.1168831,8.29145385 49.1168831,18.5194805 L49.116,31.999 L40.474,31.999 L40.4744589,18.6005583 C40.4744589,13.1456107 36.0523502,8.72350203 30.5974026,8.72350203 C25.2349118,8.72350203 20.870545,12.9969791 20.7241409,18.3240947 L20.7203463,18.6005583 L20.72,31.999 L12.077,31.999 L12.0779221,18.5194805 C12.0779221,8.29145385 20.3693759,-5.3188204e-14 30.5974026,-5.5067062e-14 Z"/></g></g></g></svg>