<svg xmlns="http://www.w3.org/2000/svg" xmlns:xlink="http://www.w3.org/1999/xlink" width="4120pt" height="300" viewBox="0 0 4120 225"><g id="graph0" class="graph" transform="scale(1 1) rotate(0) translate(4 221)"><title>models_diagram</title><polygon fill="transparent" stroke="transparent" points="-4 4 -4 -221 4115.999 -221 4115.999 4 -4 4"/><g id="node1" class="node"><title>_diagram_info</title><text x="874.232" y="-202.6" fill="#000" font-family="Times,serif" font-size="13" text-anchor="start">Models diagram</text><text x="874.232" y="-189.6" fill="#000" font-family="Times,serif" font-size="13" text-anchor="start">Date: Mar 18 2019 - 11:26</text><text x="874.232" y="-176.6" fill="#000" font-family="Times,serif" font-size="13" text-anchor="start">Migration version: 20190225005651</text><text x="874.232" y="-163.6" fill="#000" font-family="Times,serif" font-size="13" text-anchor="start">Generated by RailRoady 1.5.3</text><text x="874.232" y="-150.6" fill="#000" font-family="Times,serif" font-size="13" text-anchor="start">http://railroady.prestonlee.com</text></g><g id="node2" class="node"><title>Identity</title><ellipse cx="1561.919" cy="-90" fill="none" stroke="#000" rx="37.727" ry="18"/><text x="1561.919" y="-85.8" fill="#000" font-family="Times,serif" font-size="14" text-anchor="middle">Identity</text></g><g id="node3" class="node"><title>PersonalKeyConfiguration</title><polygon fill="none" stroke="#000" points="1903.737 -198.5 1738.102 -198.5 1738.102 -162.5 1903.737 -162.5 1903.737 -198.5"/><text x="1820.919" y="-176.3" fill="#000" font-family="Times,serif" font-size="14" text-anchor="middle">PersonalKeyConfiguration</text></g><g id="node4" class="node"><title>NullServiceProvider</title><polygon fill="none" stroke="#000" points="2052.502 -198.5 1921.336 -198.5 1921.336 -162.5 2052.502 -162.5 2052.502 -198.5"/><text x="1986.919" y="-176.3" fill="#000" font-family="Times,serif" font-size="14" text-anchor="middle">NullServiceProvider</text></g><g id="node5" class="node"><title>BackupCodeConfiguration</title><ellipse cx="104.919" cy="-90" fill="none" stroke="#000" rx="104.839" ry="18"/><text x="104.919" y="-85.8" fill="#000" font-family="Times,serif" font-size="14" text-anchor="middle">BackupCodeConfiguration</text></g><g id="node6" class="node"><title>ServiceProviderRequest</title><ellipse cx="2165.919" cy="-180.5" fill="none" stroke="#000" rx="95.641" ry="18"/><text x="2165.919" y="-176.3" fill="#000" font-family="Times,serif" font-size="14" text-anchor="middle">ServiceProviderRequest</text></g><g id="node7" class="node"><title>PhoneConfiguration</title><ellipse cx="308.919" cy="-90" fill="none" stroke="#000" rx="81.194" ry="18"/><text x="308.919" y="-85.8" fill="#000" font-family="Times,serif" font-size="14" text-anchor="middle">PhoneConfiguration</text></g><g id="node8" class="node"><title>PivCacConfiguration</title><polygon fill="none" stroke="#000" points="2414.14 -198.5 2279.698 -198.5 2279.698 -162.5 2414.14 -162.5 2414.14 -198.5"/><text x="2346.919" y="-176.3" fill="#000" font-family="Times,serif" font-size="14" text-anchor="middle">PivCacConfiguration</text></g><g id="node9" class="node"><title>FederatedProtocols::Saml</title><polygon fill="none" stroke="#000" points="2592.061 -198.5 2431.777 -198.5 2431.777 -162.5 2592.061 -162.5 2592.061 -198.5"/><text x="2511.919" y="-176.3" fill="#000" font-family="Times,serif" font-size="14" text-anchor="middle">FederatedProtocols::Saml</text></g><g id="node10" class="node"><title>FederatedProtocols::Oidc</title><polygon fill="none" stroke="#000" points="2769.495 -198.5 2610.343 -198.5 2610.343 -162.5 2769.495 -162.5 2769.495 -198.5"/><text x="2689.919" y="-176.3" fill="#000" font-family="Times,serif" font-size="14" text-anchor="middle">FederatedProtocols::Oidc</text></g><g id="node11" class="node"><title>UspsConfirmationCode</title><ellipse cx="1118.919" cy="-18" fill="none" stroke="#000" rx="93.764" ry="18"/><text x="1118.919" y="-13.8" fill="#000" font-family="Times,serif" font-size="14" text-anchor="middle">UspsConfirmationCode</text></g><g id="node12" class="node"><title>EmailAddress</title><ellipse cx="468.919" cy="-90" fill="none" stroke="#000" rx="60.42" ry="18"/><text x="468.919" y="-85.8" fill="#000" font-family="Times,serif" font-size="14" text-anchor="middle">EmailAddress</text></g><g id="node13" class="node"><title>WebauthnConfiguration</title><ellipse cx="641.919" cy="-90" fill="none" stroke="#000" rx="94.751" ry="18"/><text x="641.919" y="-85.8" fill="#000" font-family="Times,serif" font-size="14" text-anchor="middle">WebauthnConfiguration</text></g><g id="node14" class="node"><title>UspsConfirmation</title><ellipse cx="2862.919" cy="-180.5" fill="none" stroke="#000" rx="74.929" ry="18"/><text x="2862.919" y="-176.3" fill="#000" font-family="Times,serif" font-size="14" text-anchor="middle">UspsConfirmation</text></g><g id="node15" class="node"><title>Authorization</title><ellipse cx="813.919" cy="-90" fill="none" stroke="#000" rx="59.451" ry="18"/><text x="813.919" y="-85.8" fill="#000" font-family="Times,serif" font-size="14" text-anchor="middle">Authorization</text></g><g id="node16" class="node"><title>NullIdentity</title><polygon fill="none" stroke="#000" points="3040.355 -198.5 2955.484 -198.5 2955.484 -162.5 3040.355 -162.5 3040.355 -198.5"/><text x="2997.919" y="-176.3" fill="#000" font-family="Times,serif" font-size="14" text-anchor="middle">NullIdentity</text></g><g id="node17" class="node"><title>AnonymousUser</title><polygon fill="none" stroke="#000" points="3169.302 -198.5 3058.536 -198.5 3058.536 -162.5 3169.302 -162.5 3169.302 -198.5"/><text x="3113.919" y="-176.3" fill="#000" font-family="Times,serif" font-size="14" text-anchor="middle">AnonymousUser</text></g><g id="node18" class="node"><title>AccountResetRequest</title><ellipse cx="978.919" cy="-90" fill="none" stroke="#000" rx="88.408" ry="18"/><text x="978.919" y="-85.8" fill="#000" font-family="Times,serif" font-size="14" text-anchor="middle">AccountResetRequest</text></g><g id="node19" class="node"><title>Device</title><ellipse cx="1205.919" cy="-90" fill="none" stroke="#000" rx="35.296" ry="18"/><text x="1205.919" y="-85.8" fill="#000" font-family="Times,serif" font-size="14" text-anchor="middle">Device</text></g><g id="node30" class="node"><title>Event</title><ellipse cx="1316.919" cy="-18" fill="none" stroke="#000" rx="30.971" ry="18"/><text x="1316.919" y="-13.8" fill="#000" font-family="Times,serif" font-size="14" text-anchor="middle">Event</text></g><g id="edge1" class="edge"><title>Device-&gt;Event</title><path fill="none" stroke="#f588e3" d="M1234.6635,-71.3551C1250.9104,-60.8166 1271.1786,-47.6697 1287.5302,-37.0632"/><ellipse cx="1231.205" cy="-73.598" fill="none" stroke="#f588e3" rx="4" ry="4"/><polygon fill="#f588e3" stroke="#f588e3" points="1287.772 -36.907 1298.61 -35.24 1291.966 -34.186 1296.161 -31.465 1296.161 -31.465 1296.161 -31.465 1291.966 -34.186 1293.712 -27.689 1287.772 -36.907 1287.772 -36.907"/></g><g id="node20" class="node"><title>NonexistentUser</title><polygon fill="none" stroke="#000" points="3297.009 -198.5 3186.829 -198.5 3186.829 -162.5 3297.009 -162.5 3297.009 -198.5"/><text x="3241.919" y="-176.3" fill="#000" font-family="Times,serif" font-size="14" text-anchor="middle">NonexistentUser</text></g><g id="node21" class="node"><title>AuthAppConfiguration</title><polygon fill="none" stroke="#000" points="3460.809 -198.5 3315.03 -198.5 3315.03 -162.5 3460.809 -162.5 3460.809 -198.5"/><text x="3387.919" y="-176.3" fill="#000" font-family="Times,serif" font-size="14" text-anchor="middle">AuthAppConfiguration</text></g><g id="node22" class="node"><title>AgencyIdentity</title><ellipse cx="1682.919" cy="-90" fill="none" stroke="#000" rx="65.23" ry="18"/><text x="1682.919" y="-85.8" fill="#000" font-family="Times,serif" font-size="14" text-anchor="middle">AgencyIdentity</text></g><g id="node23" class="node"><title>RemoteSetting</title><ellipse cx="3541.919" cy="-180.5" fill="none" stroke="#000" rx="62.843" ry="18"/><text x="3541.919" y="-176.3" fill="#000" font-family="Times,serif" font-size="14" text-anchor="middle">RemoteSetting</text></g><g id="node24" class="node"><title>Profile</title><ellipse cx="1118.919" cy="-90" fill="none" stroke="#000" rx="33.886" ry="18"/><text x="1118.919" y="-85.8" fill="#000" font-family="Times,serif" font-size="14" text-anchor="middle">Profile</text></g><g id="edge2" class="edge"><title>Profile-&gt;UspsConfirmationCode</title><path fill="none" stroke="#df9b36" d="M1118.9193,-63.8144C1118.9193,-58.2775 1118.9193,-52.4053 1118.9193,-46.7785"/><ellipse cx="1118.919" cy="-67.831" fill="none" stroke="#df9b36" rx="4" ry="4"/><polygon fill="#df9b36" stroke="#df9b36" points="1118.919 -46.413 1123.419 -36.413 1118.919 -41.413 1118.919 -36.413 1118.919 -36.413 1118.919 -36.413 1118.919 -41.413 1114.419 -36.413 1118.919 -46.413 1118.919 -46.413"/></g><g id="node25" class="node"><title>OtpRequestsTracker</title><ellipse cx="3704.919" cy="-180.5" fill="none" stroke="#000" rx="82.474" ry="18"/><text x="3704.919" y="-176.3" fill="#000" font-family="Times,serif" font-size="14" text-anchor="middle">OtpRequestsTracker</text></g><g id="node26" class="node"><title>Agency</title><ellipse cx="1682.919" cy="-180.5" fill="none" stroke="#000" rx="37.718" ry="18"/><text x="1682.919" y="-176.3" fill="#000" font-family="Times,serif" font-size="14" text-anchor="middle">Agency</text></g><g id="edge3" class="edge"><title>Agency-&gt;AgencyIdentity</title><path fill="none" stroke="#214e91" d="M1682.9193,-153.9687C1682.9193,-142.8402 1682.9193,-129.878 1682.9193,-118.5429"/><ellipse cx="1682.919" cy="-158.186" fill="none" stroke="#214e91" rx="4" ry="4"/><polygon fill="#214e91" stroke="#214e91" points="1682.919 -118.287 1687.419 -108.287 1682.919 -113.287 1682.919 -108.287 1682.919 -108.287 1682.919 -108.287 1682.919 -113.287 1678.419 -108.287 1682.919 -118.287 1682.919 -118.287"/></g><g id="node27" class="node"><title>DocAuth</title><ellipse cx="1301.919" cy="-90" fill="none" stroke="#000" rx="42.554" ry="18"/><text x="1301.919" y="-85.8" fill="#000" font-family="Times,serif" font-size="14" text-anchor="middle">DocAuth</text></g><g id="node28" class="node"><title>ApplicationRecord</title><ellipse cx="3882.919" cy="-180.5" fill="none" stroke="#000" rx="77.292" ry="18"/><text x="3882.919" y="-176.3" fill="#000" font-family="Times,serif" font-size="14" text-anchor="middle">ApplicationRecord</text></g><g id="node29" class="node"><title>ServiceProvider</title><ellipse cx="4044.919" cy="-180.5" fill="none" stroke="#000" rx="67.16" ry="18"/><text x="4044.919" y="-176.3" fill="#000" font-family="Times,serif" font-size="14" text-anchor="middle">ServiceProvider</text></g><g id="node31" class="node"><title>DocCapture</title><ellipse cx="1453.919" cy="-90" fill="none" stroke="#000" rx="52.669" ry="18"/><text x="1453.919" y="-85.8" fill="#000" font-family="Times,serif" font-size="14" text-anchor="middle">DocCapture</text></g><g id="node32" class="node"><title>User</title><ellipse cx="1118.919" cy="-180.5" fill="none" stroke="#000" rx="27" ry="18"/><text x="1118.919" y="-176.3" fill="#000" font-family="Times,serif" font-size="14" text-anchor="middle">User</text></g><g id="edge5" class="edge"><title>User-&gt;Identity</title><path fill="none" stroke="#6548d2" d="M1153.8539,-176.4178C1223.622,-167.7645 1384.7729,-145.259 1515.9193,-108 1518.5359,-107.2566 1521.2102,-106.4211 1523.8879,-105.5278"/><ellipse cx="1149.777" cy="-176.918" fill="none" stroke="#6548d2" rx="4" ry="4"/><polygon fill="#6548d2" stroke="#6548d2" points="1524.082 -105.459 1535.013 -106.339 1528.792 -103.779 1533.501 -102.1 1533.501 -102.1 1533.501 -102.1 1528.792 -103.779 1531.99 -97.862 1524.082 -105.459 1524.082 -105.459"/></g><g id="edge14" class="edge"><title>User-&gt;BackupCodeConfiguration</title><path fill="none" stroke="#8786e9" d="M1101.759,-157.8159C1096.374,-152.3148 1089.9713,-147.1236 1082.9193,-144 995.0684,-105.0872 314.531,-117.5084 218.9193,-108 209.0498,-107.0185 198.7347,-105.7436 188.5155,-104.3254"/><ellipse cx="1104.504" cy="-160.855" fill="none" stroke="#8786e9" rx="4" ry="4"/><polygon fill="#8786e9" stroke="#8786e9" points="188.247 -104.287 178.988 -98.411 183.298 -103.576 178.348 -102.865 178.348 -102.865 178.348 -102.865 183.298 -103.576 177.708 -107.319 188.247 -104.287 188.247 -104.287"/></g><g id="edge10" class="edge"><title>User-&gt;PhoneConfiguration</title><path fill="none" stroke="#49fe39" d="M1101.7363,-157.8668C1096.3511,-152.3661 1089.954,-147.1624 1082.9193,-144 944.2943,-81.6815 550.7413,-126.7939 399.9193,-108 392.4744,-107.0723 384.7255,-105.8861 377.0299,-104.5663"/><ellipse cx="1104.482" cy="-160.903" fill="none" stroke="#49fe39" rx="4" ry="4"/><polygon fill="#49fe39" stroke="#49fe39" points="376.817 -104.528 367.768 -98.335 371.896 -103.647 366.974 -102.765 366.974 -102.765 366.974 -102.765 371.896 -103.647 366.18 -107.194 376.817 -104.528 376.817 -104.528"/></g><g id="edge11" class="edge"><title>User-&gt;EmailAddress</title><path fill="none" stroke="#1e75b6" d="M1101.7085,-157.9282C1096.3231,-152.4279 1089.9328,-147.2091 1082.9193,-144 972.5494,-93.4986 657.733,-127.4056 537.9193,-108 532.7808,-107.1677 527.4689,-106.1233 522.1792,-104.9588"/><ellipse cx="1104.455" cy="-160.96" fill="none" stroke="#1e75b6" rx="4" ry="4"/><polygon fill="#1e75b6" stroke="#1e75b6" points="521.822 -104.875 513.111 -98.214 516.954 -103.736 512.085 -102.596 512.085 -102.596 512.085 -102.596 516.954 -103.736 511.06 -106.977 521.822 -104.875 521.822 -104.875"/></g><g id="edge12" class="edge"><title>User-&gt;WebauthnConfiguration</title><path fill="none" stroke="#343a1e" d="M1101.6214,-158.1135C1096.2353,-152.6148 1089.8664,-147.3503 1082.9193,-144 947.243,-78.5683 895.0985,-128.8553 745.9193,-108 737.6367,-106.8421 729.0017,-105.5249 720.4033,-104.1421"/><ellipse cx="1104.369" cy="-161.134" fill="none" stroke="#343a1e" rx="4" ry="4"/><polygon fill="#343a1e" stroke="#343a1e" points="720.218 -104.112 711.077 -98.053 715.284 -103.303 710.35 -102.494 710.35 -102.494 710.35 -102.494 715.284 -103.303 709.622 -106.935 720.218 -104.112 720.218 -104.112"/></g><g id="edge4" class="edge"><title>User-&gt;Authorization</title><path fill="none" stroke="#3f9a1f" d="M1100.844,-157.81C1095.5926,-152.5352 1089.4851,-147.458 1082.9193,-144 1002.6206,-101.7086 970.5262,-127.6281 881.9193,-108 877.2469,-106.965 872.4116,-105.8251 867.5727,-104.6366"/><ellipse cx="1103.872" cy="-161.075" fill="none" stroke="#3f9a1f" rx="4" ry="4"/><polygon fill="#3f9a1f" stroke="#3f9a1f" points="867.384 -104.589 858.785 -97.783 862.535 -103.368 857.686 -102.147 857.686 -102.147 857.686 -102.147 862.535 -103.368 856.587 -106.511 867.384 -104.589 867.384 -104.589"/></g><g id="edge9" class="edge"><title>User-&gt;AccountResetRequest</title><path fill="none" stroke="#1be412" d="M1099.7617,-158.8286C1094.5878,-153.6267 1088.7879,-148.3295 1082.9193,-144 1064.9978,-130.7787 1043.3865,-118.9905 1024.5181,-109.8274"/><ellipse cx="1102.746" cy="-161.941" fill="none" stroke="#1be412" rx="4" ry="4"/><ellipse cx="1020.775" cy="-108.042" fill="#1be412" stroke="#1be412" rx="4" ry="4"/></g><g id="edge15" class="edge"><title>User-&gt;Device</title><path fill="none" stroke="#6e8c75" d="M1139.5441,-159.0455C1152.6424,-145.4202 1169.6082,-127.7719 1183.1083,-113.7287"/><ellipse cx="1136.45" cy="-162.264" fill="none" stroke="#6e8c75" rx="4" ry="4"/><polygon fill="#6e8c75" stroke="#6e8c75" points="1183.275 -113.555 1193.449 -109.465 1186.74 -109.951 1190.205 -106.346 1190.205 -106.346 1190.205 -106.346 1186.74 -109.951 1186.961 -103.228 1183.275 -113.555 1183.275 -113.555"/></g><g id="edge6" class="edge"><title>User-&gt;AgencyIdentity</title><path fill="none" stroke="#2d551f" d="M1153.9368,-176.4389C1234.5907,-166.8414 1439.533,-141.0599 1608.9193,-108 1614.1912,-106.9711 1619.6534,-105.8154 1625.1128,-104.5991"/><ellipse cx="1149.595" cy="-176.953" fill="none" stroke="#2d551f" rx="4" ry="4"/><polygon fill="#2d551f" stroke="#2d551f" points="1625.147 -104.591 1635.9 -106.745 1630.021 -103.475 1634.895 -102.359 1634.895 -102.359 1634.895 -102.359 1630.021 -103.475 1633.89 -97.972 1625.147 -104.591 1625.147 -104.591"/></g><g id="edge7" class="edge"><title>User-&gt;Profile</title><path fill="none" stroke="#7d9491" d="M1118.9193,-153.9687C1118.9193,-142.8402 1118.9193,-129.878 1118.9193,-118.5429"/><ellipse cx="1118.919" cy="-158.186" fill="none" stroke="#7d9491" rx="4" ry="4"/><polygon fill="#7d9491" stroke="#7d9491" points="1118.919 -118.287 1123.419 -108.287 1118.919 -113.287 1118.919 -108.287 1118.919 -108.287 1118.919 -108.287 1118.919 -113.287 1114.419 -108.287 1118.919 -118.287 1118.919 -118.287"/></g><g id="edge13" class="edge"><title>User-&gt;DocAuth</title><path fill="none" stroke="#7277e6" d="M1148.0689,-166.0845C1180.2231,-150.1831 1231.9683,-124.5933 1266.4506,-107.5405"/><ellipse cx="1144.216" cy="-167.99" fill="none" stroke="#7277e6" rx="4" ry="4"/><ellipse cx="1270.377" cy="-105.599" fill="#7277e6" stroke="#7277e6" rx="4" ry="4"/></g><g id="edge8" class="edge"><title>User-&gt;Event</title><path fill="none" stroke="#76e4c9" d="M1153.3123,-174.968C1212.5689,-164.6581 1329.8868,-140.5644 1353.9193,-108 1368.8413,-87.7804 1353.9302,-60.672 1338.8173,-41.5069"/><ellipse cx="1149.295" cy="-175.656" fill="none" stroke="#76e4c9" rx="4" ry="4"/><polygon fill="#76e4c9" stroke="#76e4c9" points="1338.816 -41.505 1335.871 -30.942 1335.615 -37.664 1332.414 -33.823 1332.414 -33.823 1332.414 -33.823 1335.615 -37.664 1328.957 -36.704 1338.816 -41.505 1338.816 -41.505"/></g><g id="edge16" class="edge"><title>User-&gt;DocCapture</title><path fill="none" stroke="#f3e684" d="M1151.9329,-171.5814C1211.0602,-155.6082 1335.3061,-122.0433 1404.5857,-103.3274"/><ellipse cx="1147.96" cy="-172.655" fill="none" stroke="#f3e684" rx="4" ry="4"/><ellipse cx="1408.482" cy="-102.275" fill="#f3e684" stroke="#f3e684" rx="4" ry="4"/></g></g></svg>