<svg xmlns="http://www.w3.org/2000/svg" xmlns:xlink="http://www.w3.org/1999/xlink" width="48" height="48" version="1.1" viewBox="0 0 48 48"><title>GSA-logo</title><desc>Created with Sketch.</desc><g id="Symbols" fill="none" fill-rule="evenodd" stroke="none" stroke-width="1"><g id="Rectangle" transform="translate(-168.000000, -32.000000)"><g id="Group" transform="translate(100.000000, 32.000000)"><g id="GSA-logo" transform="translate(68.000000, 0.000000)"><g id="Layer_1"><rect id="Rectangle-path" width="47.633" height="47.678" x="0" y="0" fill="#00548E"/><polygon id="Shape" fill="#FFF" points="38.423 32.3 37.349 29.719 36.208 32.3 33.618 32.3 37.263 24.276 40.927 32.3"/><polygon id="Shape" fill="#FFF" points="35.244 34.057 33.908 37.105 37.168 35.434 38.966 36.856 32.613 39.944 30.109 39.944 33.451 32.427"/><polygon id="Shape" fill="#FFF" points="44.228 39.944 41.511 39.944 39.043 34.107 40.814 32.382"/><path id="Shape" fill="#FFF" d="M28.1615094,24.765283 C28.1615094,24.765283 27.7901887,27.029434 27.8264151,27.1335849 C26.4181132,26.4316981 24.4120755,26.0060377 23.0762264,26.7441509 C22.410566,27.1109434 22.170566,28.1433962 22.4784906,28.9267925 C24.6611321,31.3177358 28.5283019,30.7381132 28.7411321,35.3660377 C28.7511391,36.6231108 28.225893,37.8250847 27.2966038,38.6716981 C25.2633962,40.2656604 22.3154717,40.1479245 19.9426415,39.3056604 L20.1871698,36.8060377 C21.5456604,37.5441509 24.090566,38.2143396 25.5713208,36.8422642 C26.0784906,36.389434 26.205283,35.5743396 26.1328302,34.7683019 C25.2860377,32.3049057 18.6022642,32.4090566 19.8339623,27.3101887 C20.1918403,26.0319183 21.1498333,25.0080316 22.4015094,24.5660377 C24.1313208,23.7645283 26.4815094,24.2309434 28.1615094,24.765283 L28.1615094,24.765283 Z"/><path id="Shape" fill="#FFF" d="M15.8898113,25.0777358 L15.8037736,27.5909434 C13.9471698,26.3954717 10.650566,25.9562264 8.51773585,27.2150943 C6.61584906,28.3335849 6.0045283,29.9773585 5.96377358,31.9879245 C5.91849057,34.1298113 6.79245283,36.1403774 8.90264151,37.245283 C10.2883019,37.9698113 13.5169811,37.6211321 13.5169811,37.6211321 L13.5169811,33.8037736 L10.7139623,33.8037736 L10.7366038,31.44 L16.1207547,31.44 L16.1207547,39.4732075 C13.154717,40.3788679 9.26490566,40.4150943 6.66566038,38.6445283 C3.89433962,36.7471698 3.40981132,34.4150943 3.40981132,31.9879245 C3.40981132,28.7230189 5.36150943,25.2362264 9.22867925,24.4935849 C11.4604186,24.0698664 13.7658855,24.2720453 15.8898113,25.0777358 L15.8898113,25.0777358 Z"/></g></g></g></g></g></svg>